<svg id="Layer_1" data-name="Layer 1" xmlns="http://www.w3.org/2000/svg" viewBox="0 0 120 36"><defs><style>.cls-1{fill:#202020;}</style></defs><path class="cls-1" d="M27.42,23.39l.28,1.28-3,6.26H18L30.83,5.07,43.65,30.93H37l-2.92-6,.21-1.49-3.44-7.89Zm-2.53-1.64h12l.39,4.48H24.47Z"/><path class="cls-1" d="M55.52,19a2,2,0,0,0-1.79-.77,3,3,0,0,0-1.46.35,2.37,2.37,0,0,0-1,1A3.29,3.29,0,0,0,51,21.2v9.73H45.67v-16H51v2.4a5.13,5.13,0,0,1,1.89-2.05,5.59,5.59,0,0,1,3-.73,5.39,5.39,0,0,1,4.35,1.6,6.73,6.73,0,0,1,1.35,4.48V30.93H56.06V21.2A3.77,3.77,0,0,0,55.52,19Z"/><path class="cls-1" d="M65.89,18.17a8.06,8.06,0,0,1,3.27-2.92,11,11,0,0,1,9.36,0,8.19,8.19,0,0,1,3.27,2.92A8,8,0,0,1,83,22.59,7.94,7.94,0,0,1,81.79,27a8,8,0,0,1-3.27,2.92,11,11,0,0,1-9.36,0A7.92,7.92,0,0,1,65.89,27a8,8,0,0,1-1.18-4.37A8.11,8.11,0,0,1,65.89,18.17Zm4.73,6.55A3.8,3.8,0,0,0,72,26.1a3.88,3.88,0,0,0,3.74,0,3.65,3.65,0,0,0,1.35-1.38,4.2,4.2,0,0,0,.51-2.13,4.31,4.31,0,0,0-.51-2.16A3.61,3.61,0,0,0,75.71,19a3.68,3.68,0,0,0-5.09,1.39,4.22,4.22,0,0,0-.53,2.16A4.1,4.1,0,0,0,70.62,24.72Z"/><path class="cls-1" d="M96,19a2,2,0,0,0-1.79-.77,3,3,0,0,0-1.46.35,2.43,2.43,0,0,0-1,1,3.41,3.41,0,0,0-.35,1.6v9.73H86.11v-16h5.28v2.4a5.23,5.23,0,0,1,1.9-2.05,5.59,5.59,0,0,1,3-.73,5.37,5.37,0,0,1,4.34,1.6A6.68,6.68,0,0,1,102,20.64V30.93H96.5V21.2A3.77,3.77,0,0,0,96,19Z"/></svg>