<?xml version="1.0" encoding="iso-8859-1"?>
<!-- Generator: Adobe Illustrator 19.0.0, SVG Export Plug-In . SVG Version: 6.00 Build 0)  -->
<svg version="1.1" id="Layer_1" xmlns="http://www.w3.org/2000/svg" xmlns:xlink="http://www.w3.org/1999/xlink" x="0px" y="0px"
	 viewBox="0 0 511.996 511.996" style="enable-background:new 0 0 511.996 511.996;" xml:space="preserve">
<g transform="translate(0 -1)">
	<path style="fill:#FDD7AD;" d="M120.271,71.894c1.995-3.805,4.979-6.991,8.351-9.613c21.257-16.49,49.02-11.414,73.613-17.073
		c13.4-3.081,25.83-11.388,27.277-26.553c0.124-1.28,0-17.655,0-17.655h26.483h26.483c0,0-0.124,16.375,0,17.655
		c1.448,15.166,13.877,23.473,27.277,26.553c24.594,5.658,52.356,0.583,73.613,17.073c3.372,2.622,6.356,5.809,8.351,9.613
		c0,0,12.138,30.897-56.276,88.002h-79.448h-79.448C108.133,102.791,120.271,71.894,120.271,71.894"/>
	<path style="fill:#26B99A;" d="M395.677,344.618c-24.858-33.298-49.028-59.021-63.682-73.657
		c-8.192-8.174-11.396-19.959-8.58-31.188c6.321-25.212,12.394-65.465,12.394-79.881h-79.81h-79.819
		c0,14.415,6.082,54.669,12.403,79.881c2.816,11.229-0.388,23.013-8.58,31.188c-14.663,14.636-38.833,40.36-63.691,73.657
		c-29.105,39-47.642,84.895-54.519,133.067c7.601,6.674,34.957,17.646,48.199,17.646c35.31,0,51.112-6.241,58.094-8.819
		c0,0,26.121,26.483,52.604,26.483c28.769,0,35.31-8.951,35.31-8.951s6.532,8.951,35.31,8.951c26.483,0,52.595-26.483,52.595-26.483
		c6.991,2.578,22.784,8.819,58.094,8.819c13.241,0,40.607-10.973,48.207-17.646C443.319,429.513,424.79,383.618,395.677,344.618"/>
	<g>
		<path style="fill:#1C8E73;" d="M176.346,274.653h159.303c-1.236-1.254-2.41-2.436-3.54-3.558
			c-8.254-8.254-11.494-20.189-8.66-31.523l0.053-0.23H188.484l0.062,0.23c2.825,11.335-0.406,23.27-8.669,31.523
			C178.756,272.216,177.573,273.399,176.346,274.653"/>
		<path style="fill:#1C8E73;" d="M255.995,248.17c4.873,0,8.828-3.946,8.828-8.828v-79.448h-8.828h-8.828v79.448
			C247.168,244.224,251.122,248.17,255.995,248.17"/>
		<path style="fill:#1C8E73;" d="M343.03,49.174c-6.647-0.636-13.365-1.059-19.977-1.801
			c-25.344,28.292-40.298,78.045-40.298,112.516h17.655c0-37.058,17.938-84.189,39.98-105.048
			C342.023,53.296,342.853,51.257,343.03,49.174"/>
		<path style="fill:#1C8E73;" d="M168.96,49.174c0.177,2.083,1.006,4.122,2.639,5.667c22.042,20.86,39.98,67.99,39.98,105.048
			h17.655c0-34.472-14.954-84.224-40.298-112.516C182.325,48.115,175.608,48.538,168.96,49.174"/>
	</g>
</g>
<g>
</g>
<g>
</g>
<g>
</g>
<g>
</g>
<g>
</g>
<g>
</g>
<g>
</g>
<g>
</g>
<g>
</g>
<g>
</g>
<g>
</g>
<g>
</g>
<g>
</g>
<g>
</g>
<g>
</g>
</svg>
