<?xml version="1.0" encoding="iso-8859-1"?>
<!-- Generator: Adobe Illustrator 19.0.0, SVG Export Plug-In . SVG Version: 6.00 Build 0)  -->
<svg version="1.1" id="Layer_1" xmlns="http://www.w3.org/2000/svg" xmlns:xlink="http://www.w3.org/1999/xlink" x="0px" y="0px"
	 viewBox="0 0 512 512" style="enable-background:new 0 0 512 512;" xml:space="preserve">
<path style="fill:#FFC72D;" d="M256,121.598c-33.525,0-60.799-27.275-60.799-60.799S222.475,0,256,0s60.799,27.275,60.799,60.799
	S289.525,121.598,256,121.598z"/>
<path style="fill:#FFAF00;" d="M256,0v121.598c33.525,0,60.799-27.275,60.799-60.799S289.525,0,256,0z"/>
<path style="fill:#FF423D;" d="M322.685,92.098c-37.934-11.276-95.744-11.185-133.37,0c-79.81,23.739-138.178,97.78-138.178,185.182
	v104.923c0,10.34,8.379,18.732,18.732,18.732h372.261c10.352,0,18.732-8.392,18.732-18.732V277.279
	C460.862,189.877,402.494,115.837,322.685,92.098z"/>
<g>
	<path style="fill:#F32E28;" d="M322.685,92.098c-18.937-5.63-42.826-8.426-66.685-8.423v317.259h186.131
		c10.352,0,18.732-8.392,18.732-18.732V277.279C460.862,189.877,402.494,115.837,322.685,92.098z"/>
	<path style="fill:#F32E28;" d="M336.771,136.404v264.529h-37.463V136.404c0-52.815-86.615-52.645-86.615,0v264.529h-37.463V136.404
		c0-16.484,5.22-31.781,14.086-44.307c36.931-10.979,94.822-11.46,133.37,0C331.551,104.623,336.771,119.92,336.771,136.404z"/>
</g>
<path style="fill:#E0231B;" d="M322.685,92.098c-19.111-5.681-42.977-8.424-66.685-8.412v13.171
	c21.654-0.021,43.308,13.14,43.308,39.548v264.529h37.463V136.404C336.771,119.92,331.551,104.623,322.685,92.098z"/>
<path style="fill:#FFC72D;" d="M481.924,512H30.076c-10.345,0-18.732-8.387-18.732-18.732V382.197
	c0-10.345,8.387-18.732,18.732-18.732h451.849c10.345,0,18.732,8.387,18.732,18.732v111.072
	C500.656,503.613,492.269,512,481.924,512z"/>
<g>
	<path style="fill:#FFAF00;" d="M481.924,363.465H256V512h225.924c10.345,0,18.732-8.387,18.732-18.732V382.197
		C500.656,371.852,492.269,363.465,481.924,363.465z"/>
	<path style="fill:#FFAF00;" d="M299.96,456.464H212.04c-10.345,0-18.732-8.387-18.732-18.732c0-10.345,8.387-18.732,18.732-18.732
		h87.919c10.345,0,18.732,8.387,18.732,18.732C318.691,448.077,310.304,456.464,299.96,456.464z"/>
</g>
<path style="fill:#FF9B00;" d="M299.96,419.001H256v37.463h43.96c10.345,0,18.732-8.387,18.732-18.732
	C318.691,427.388,310.304,419.001,299.96,419.001z"/>
<g>
</g>
<g>
</g>
<g>
</g>
<g>
</g>
<g>
</g>
<g>
</g>
<g>
</g>
<g>
</g>
<g>
</g>
<g>
</g>
<g>
</g>
<g>
</g>
<g>
</g>
<g>
</g>
<g>
</g>
</svg>
