<?xml version="1.0" encoding="iso-8859-1"?>
<!-- Generator: Adobe Illustrator 19.0.0, SVG Export Plug-In . SVG Version: 6.00 Build 0)  -->
<svg version="1.1" id="Layer_1" xmlns="http://www.w3.org/2000/svg" xmlns:xlink="http://www.w3.org/1999/xlink" x="0px" y="0px"
	 viewBox="0 0 345.47 345.47" style="enable-background:new 0 0 345.47 345.47;" xml:space="preserve">
<g id="XMLID_1336_">
	<g id="XMLID_1337_">
		<path id="XMLID_42_" style="fill:#1DD2A5;" d="M305.41,179.52v140.07c0,14.29-11.59,25.88-25.88,25.88H65.94
			c-14.29,0-25.88-11.59-25.88-25.88V179.52c0-7.71,4.24-14.76,10.99-18.48c10.17-5.61,23.74-15.11,23.74-25.89V0h30.49
			c0,37.25,30.2,67.45,67.45,67.45c37.26,0,67.46-30.2,67.46-67.45h30.48v135.15c0,10.78,13.57,20.28,23.75,25.89
			C301.17,164.76,305.41,171.81,305.41,179.52z"/>
		<path id="XMLID_39_" style="fill:#2CB79A;" d="M294.42,161.04c-10.18-5.61-23.75-15.11-23.75-25.89V0h-30.48
			c0,37.249-30.198,67.447-67.455,67.45v278.02H279.53c14.29,0,25.88-11.59,25.88-25.88V179.52
			C305.41,171.81,301.17,164.76,294.42,161.04z"/>
	</g>
	<path id="XMLID_37_" style="fill:#FAE16E;" d="M231.985,183.117h-12.333c-11.414,0-20.667-9.253-20.667-20.667v-36h53.667v36
		C252.652,173.864,243.399,183.117,231.985,183.117z"/>
	<g id="XMLID_1338_">
		<rect id="XMLID_36_" x="40.06" y="270.57" style="fill:#FCE98E;" width="265.35" height="32.63"/>
		<rect id="XMLID_35_" x="172.735" y="270.57" style="fill:#FAE16E;" width="132.675" height="32.63"/>
	</g>
	<g id="XMLID_1340_">
		<rect id="XMLID_33_" x="40.06" y="206.88" style="fill:#FCE98E;" width="265.35" height="32.64"/>
		<rect id="XMLID_32_" x="172.735" y="206.88" style="fill:#FAE16E;" width="132.675" height="32.64"/>
	</g>
</g>
<g>
</g>
<g>
</g>
<g>
</g>
<g>
</g>
<g>
</g>
<g>
</g>
<g>
</g>
<g>
</g>
<g>
</g>
<g>
</g>
<g>
</g>
<g>
</g>
<g>
</g>
<g>
</g>
<g>
</g>
</svg>
